<svg width="143" height="143" viewBox="0 0 143 143" fill="none" xmlns="http://www.w3.org/2000/svg">
<g id="counter-strike-global-offensive-2-logo-svgrepo-com 1" clip-path="url(#clip0_225_986)">
<g id="Group">
<path id="Vector" d="M41.9687 71.6546C41.6408 70.7084 41.9145 69.6748 42.3422 68.8076C42.7323 68.2017 43.1266 67.5957 43.3818 66.9172C43.4793 66.8653 43.6723 66.7574 43.7678 66.7055C43.8321 66.7325 43.9649 66.7844 44.0293 66.8114C45.1291 66.3279 46.4322 66.0187 47.5878 66.4876C47.978 66.8072 48.0383 67.3633 48.1894 67.8136C48.7476 67.8157 49.2998 67.7265 49.8539 67.6787C50.0095 66.7159 49.3392 65.9008 49.4056 64.9483C48.8723 64.8197 48.3303 64.718 47.8076 64.5474C48.1541 64.3503 48.5528 64.3422 48.9429 64.3399C49.0134 64.0909 49.0778 63.8377 49.1398 63.5829C49.2355 63.5804 49.4264 63.5786 49.5218 63.5786C49.5467 59.4035 49.503 55.2306 49.5447 51.0553C49.6874 51.0657 49.974 51.086 50.1174 51.0943C50.1174 50.9864 50.1195 50.7665 50.1195 50.6569C49.3602 50.661 48.5984 50.6569 47.8391 50.659C47.8348 50.5531 47.8286 50.3456 47.8265 50.2419C48.4241 50.2394 49.0217 50.2375 49.6196 50.2313C49.7316 50.1402 49.9555 49.9576 50.0676 49.8659C49.9865 49.7974 49.8271 49.6606 49.7459 49.5924C50.0429 49.2749 50.4496 49.4554 50.8144 49.4695C50.8018 48.3012 50.8806 47.1209 50.7852 45.9564C50.7208 45.8692 50.5942 45.6949 50.5301 45.6078C50.5922 45.4478 50.6546 45.2861 50.719 45.1263C50.7061 44.6013 50.7044 44.0743 50.7024 43.5472C50.9742 43.558 51.2458 43.5663 51.5179 43.5767C51.5073 44.2552 51.493 44.9358 51.609 45.604C51.2377 46.0356 51.3556 46.6146 51.3415 47.1355C51.3788 47.9364 51.2377 48.7627 51.4928 49.5384C51.6214 49.9995 51.5905 50.5054 51.3288 50.9121C51.5716 51.0101 52.1153 50.8603 52.0943 51.2695C52.1153 52.8797 52.08 54.488 52.1049 56.0962C52.2211 56.3161 52.3311 56.5382 52.4388 56.7577C53.1319 56.9901 53.5944 57.6562 54.0178 58.2231C55.0823 58.2937 56.0763 57.8724 57.1094 57.7085C57.2005 58.026 57.2943 58.3456 57.3981 58.6589C58.4605 59.1092 59.9108 58.8332 60.6521 59.8749C61.1167 60.6738 62.1272 61.2026 61.9677 62.28C62.4242 61.7321 62.281 62.4294 61.9158 62.3567C61.7436 64.3053 60.6002 65.9467 59.7288 67.6399C60.2059 67.7188 60.6751 67.8431 61.142 67.972C61.2644 67.3287 61.7375 66.7975 62.3974 66.6833C63.8357 66.4779 65.2636 66.8888 66.7055 66.8825C67.5522 66.8369 68.3281 67.2 69.0191 67.6524C69.4673 68.0487 69.0064 68.6733 68.9402 69.1485C69.1498 69.2567 69.3596 69.3623 69.5711 69.466C70.1353 69.3312 70.7225 69.273 71.2745 69.0842C72.4469 68.0238 73.7171 67.0589 75.1178 66.3181C76.7041 65.5555 78.3289 64.876 79.9858 64.2822C80.3076 64.2243 80.4232 63.9214 80.5398 63.6553C80.8718 63.6201 81.2034 63.5848 81.5398 63.5516C81.6913 63.4478 81.8426 63.342 81.9961 63.2341C84.0424 63.1698 86.0799 63.4208 88.099 63.7388C89.0102 63.9355 89.9002 63.4026 90.8174 63.6184C91.287 63.5935 91.6416 63.9168 92.0566 64.0687C93.0257 64.0977 94.007 64.1455 94.9744 64.0392C95.6841 63.9649 96.1404 63.3648 96.6698 62.9581C97.1411 62.514 97.7738 62.1426 97.9416 61.4703C98.1305 60.8373 98.4044 60.2335 98.7636 59.6757C99.1846 59.5055 99.6312 59.5367 100.069 59.6176C100.293 60.8336 100.181 62.0745 100.2 63.303C100.249 64.2496 99.7409 65.0938 99.6349 66.0135C99.6125 66.9037 100.054 67.989 99.2574 68.6733C98.1518 68.3832 96.9645 68.36 95.9329 67.8292C94.7649 67.659 93.5798 67.9823 92.4011 67.9143C92.316 68.0155 92.1459 68.2193 92.0604 68.321C91.2907 68.2479 90.6057 68.6279 89.8693 68.7547C88.7938 68.8373 87.7193 68.9352 86.6485 69.0597C86.1277 69.1573 85.6506 68.8875 85.3041 68.5202C84.7023 68.487 84.1065 68.4057 83.5091 68.348C83.1208 68.4372 82.8326 68.7464 82.5006 68.9456C82.7811 69.6117 82.6481 70.5102 81.9961 70.9066C80.5977 71.8464 79.1991 72.7845 77.8086 73.7349C77.7839 74.1085 77.8231 74.5027 77.6737 74.8513C77.261 75.2535 76.7111 75.4635 76.2089 75.7204C76.6218 76.0879 77.2545 76.0611 77.6303 76.4965C78.5145 77.4178 79.8135 77.6627 80.9463 78.1441C81.6807 78.5131 82.5668 78.3056 83.2829 78.7168C83.6687 78.9368 83.7454 79.4888 84.1858 79.634C84.6606 79.8249 85.1526 80.049 85.4414 80.4952C85.7585 80.9787 86.3607 81.1071 86.8583 81.3227C87.3171 81.5199 87.7983 81.2273 88.2696 81.2958C89.7659 81.6029 91.017 82.5554 92.4822 82.9558C93.1421 83.1385 93.885 83.4001 94.0259 84.1679C95.5864 85.0415 97.4957 85.5228 99.2527 85.0289C99.8046 84.7259 100.425 84.7425 101.033 84.8359C101.141 86.2239 101.328 87.6477 100.94 89.0108C100.307 89.3304 99.5619 89.2847 98.8777 89.2183C97.0782 88.7973 95.3104 88.2388 93.4926 87.8967C93.1129 88.3241 92.532 88.2243 92.0234 88.2162C91.0751 88.2306 90.3156 87.5854 89.5375 87.1372C88.7386 86.9689 87.8801 87.0477 87.1469 86.635C86.2298 86.1492 85.2381 85.7386 84.497 84.9892C83.8434 84.8463 83.3497 84.3644 82.7203 84.1698C82.1642 83.9623 81.5998 84.3254 81.0314 84.2524C79.3066 84.0741 77.599 83.7606 75.887 83.4887C75.4575 84.0032 74.775 83.8374 74.1958 84.0013C73.9676 83.9204 73.7499 83.8187 73.538 83.6962C73.4197 83.8249 73.2994 83.9513 73.1813 84.0801C72.5727 83.9556 71.4833 83.9909 71.681 83.0571C69.6661 82.999 67.7155 83.6983 65.6983 83.4638C65.8433 83.3393 65.9909 83.2171 66.1382 83.0924L65.4555 83.1588C65.248 82.7687 65.0882 82.3537 65.0073 81.9179C64.9141 82.6276 64.7336 83.3186 64.5715 84.0142C64.1293 84.1822 63.6585 84.0884 63.2061 84.0266C61.6788 83.7568 60.1308 83.6572 58.5828 83.6012C58.3093 82.8147 58.5415 81.9474 58.176 81.1796C56.24 81.4178 54.219 81.478 52.3616 80.7894C50.7802 80.2354 49.255 79.1769 48.6991 77.5253C48.5125 76.7451 48.3027 75.7635 49.0601 75.212C48.9211 75.0605 48.7779 74.909 48.6389 74.7575C46.1376 76.0169 42.4833 74.5125 41.9687 71.6546ZM52.8173 61.5761C53.0207 61.9081 53.2533 62.2339 53.6227 61.8849C53.7241 62.055 53.8219 62.2256 53.915 62.3978C54.1225 62.6676 54.2406 63.2735 54.6602 63.203C55.1468 62.8999 55.6584 62.6388 56.1893 62.4225C55.6459 61.7608 54.915 61.2337 54.1414 60.8768C54.0646 60.8021 53.9111 60.6504 53.8362 60.5759C53.4813 60.6091 53.1346 60.6879 52.8069 60.827C52.8113 61.076 52.8152 61.3271 52.8173 61.5761Z" fill="white" fill-opacity="0.3"/>
<path id="Vector_2" d="M71.3936 55.4875C70.1944 54.5373 69.5302 53.0018 69.5551 51.4788C69.5594 46.8451 69.553 42.2094 69.5571 37.5757C69.6049 35.3155 71.371 33.1119 73.6662 32.8504C73.6449 39.2646 73.6849 45.6771 73.6449 52.0887C77.9364 52.0949 82.2298 52.1032 86.5234 52.0887C86.5153 47.1666 86.5068 42.2449 86.5275 37.3223C84.9899 37.3412 83.4522 37.3165 81.9148 37.3368C81.9287 39.7707 81.9334 42.205 81.9148 44.6391C81.8399 46.5916 80.153 48.0441 78.356 48.4839C78.3373 43.2505 78.3352 38.0191 78.3581 32.7861C80.9872 32.8085 83.6186 32.7733 86.2478 32.8048C88.4619 32.8671 90.4107 34.7718 90.6327 36.955C90.6327 42.0037 90.6306 47.0545 90.6306 52.1032C90.6198 53.6118 89.6674 54.9461 88.4785 55.7969C87.6379 56.378 86.5943 56.5089 85.6043 56.5917C82.0766 56.6 78.5469 56.5875 75.0192 56.596C73.7405 56.577 72.3898 56.3508 71.3936 55.4875ZM69.7001 24.8738C69.559 24.3525 69.5488 23.8092 69.5551 23.2714C69.5679 18.9884 69.5407 14.7033 69.5654 10.4203C69.6692 7.9924 71.7655 5.85941 74.2012 5.76582C78.1379 5.76146 82.0762 5.76146 86.0152 5.76582C88.4283 5.80939 90.6777 7.94675 90.6364 10.397C90.6157 15.1075 90.6509 19.818 90.6198 24.5289C90.3584 26.8779 88.1154 28.6812 85.7931 28.6977C82.203 28.7309 78.6089 28.6936 75.0192 28.7164C73.9609 28.7351 72.8736 28.5442 71.9605 27.9839C70.8128 27.3263 70.0095 26.1477 69.7001 24.8738ZM73.5312 24.1348C77.9594 24.1265 82.3896 24.1535 86.8178 24.1224C86.8305 19.5219 86.8157 14.9189 86.8236 10.3186C82.3916 10.3045 77.959 10.3165 73.5243 10.3128C73.5226 14.9193 73.5146 19.5281 73.5312 24.1348ZM74.5853 142.993C72.1844 142.895 69.9286 140.884 69.8352 138.438C69.8308 133.867 69.8308 129.293 69.8373 124.721C69.8126 122.252 72.0433 120.195 74.4359 120.009C74.4631 120.339 74.4834 120.669 74.4878 120.999C74.4818 126.442 74.4899 131.885 74.4834 137.326C78.3514 137.328 82.2192 137.348 86.0874 137.315C86.0789 131.538 86.0747 125.763 86.0897 119.986C88.569 120.15 90.7692 122.238 90.8666 124.754C90.9249 128.896 90.8686 133.038 90.8937 137.18C90.929 138.212 90.8001 139.274 90.3291 140.204C89.5096 141.806 87.839 142.939 86.0253 142.994C82.2113 142.999 78.3991 143.005 74.5853 142.993ZM72.7053 115.61C71.0429 114.848 69.8084 113.105 69.831 111.25C69.8354 106.684 69.831 102.117 69.8331 97.5496C69.8476 95.1655 71.935 93.0655 74.2906 92.8972C74.3757 98.9194 74.3029 104.945 74.3259 110.969C75.5378 110.996 76.7496 110.984 77.9634 110.986C77.9777 106.508 77.9675 102.028 77.9675 97.5496C78.0194 96.2218 78.445 94.8271 79.472 93.9226C80.3811 92.906 81.7652 92.4762 83.0974 92.443C84.4275 92.4204 85.7641 92.4204 87.0814 92.6362C89.2148 93.1301 90.8043 95.1699 90.8728 97.3465C90.9141 101.7 90.8769 106.056 90.8935 110.409C90.9145 111.436 90.7669 112.499 90.2668 113.41C89.5134 114.854 87.9981 115.892 86.3717 116.035C86.4011 109.905 86.3904 103.773 86.376 97.643C85.0849 97.6285 83.7944 97.6368 82.5039 97.6368C82.4728 102.173 82.4995 106.711 82.491 111.25C82.512 113.858 80.115 116.165 77.5151 116.095C75.9132 116.004 74.1931 116.373 72.7053 115.61ZM70.2629 4.34872C70.2483 3.77184 70.2255 3.18874 70.3127 2.61394C70.3812 2.88162 70.4164 3.15387 70.4206 3.42737C71.0454 3.46265 71.67 3.46681 72.2942 3.45851C72.2942 3.51869 72.2942 3.63676 72.2963 3.69507C71.6551 3.69092 71.0139 3.68469 70.3747 3.69299C70.3876 3.85486 70.4164 4.17648 70.4287 4.33627L70.2629 4.34872ZM70.2396 2.29042C70.2461 2.16779 70.2585 1.91899 70.2647 1.79407C70.8269 1.61769 71.3789 1.41017 71.9122 1.15286C71.3747 0.91214 70.8018 0.75444 70.2793 0.488815C70.2627 0.37262 70.2274 0.140213 70.2108 0.0244141C70.9744 0.0887451 71.819 -0.174789 72.5141 0.237747C71.8377 0.312454 71.1568 0.281311 70.4783 0.325104C71.1114 0.640717 71.8229 0.789719 72.4083 1.20265C71.8067 1.51828 71.1215 1.65297 70.5536 2.03064C71.1595 2.05533 71.7675 2.04308 72.3751 2.05138L72.35 2.27342C71.647 2.27362 70.9433 2.284 70.2396 2.29042Z" fill="white" fill-opacity="0.3"/>
</g>
</g>
<defs>
<clipPath id="clip0_225_986">
<rect width="143" height="143" fill="white" transform="matrix(0 -1 1 0 0 143)"/>
</clipPath>
</defs>
</svg>
