<svg width="22" height="22" viewBox="0 0 22 22" fill="none" xmlns="http://www.w3.org/2000/svg">
<g id="Discord - Original" clip-path="url(#clip0_225_710)">
<path id="Vector" d="M18.6239 3.80899C17.2217 3.1656 15.7181 2.69158 14.1459 2.42008C14.1173 2.41484 14.0887 2.42794 14.0739 2.45413C13.8805 2.79808 13.6663 3.24678 13.5163 3.59946C11.8254 3.34631 10.1431 3.34631 8.48679 3.59946C8.33676 3.23894 8.11478 2.79808 7.92053 2.45413C7.90578 2.42881 7.87718 2.41572 7.84855 2.42008C6.27725 2.69071 4.7736 3.16473 3.37052 3.80899C3.35838 3.81423 3.34797 3.82297 3.34106 3.83431C0.488942 8.0953 -0.292371 12.2516 0.0909151 16.3563C0.0926494 16.3764 0.103922 16.3956 0.119532 16.4078C2.00127 17.7897 3.82407 18.6287 5.61301 19.1847C5.64164 19.1935 5.67197 19.183 5.69019 19.1594C6.11337 18.5815 6.49059 17.9722 6.81402 17.3314C6.83311 17.2939 6.81489 17.2494 6.77588 17.2345C6.17754 17.0075 5.6078 16.7308 5.05975 16.4165C5.0164 16.3912 5.01293 16.3292 5.05281 16.2995C5.16814 16.2131 5.2835 16.1232 5.39363 16.0324C5.41355 16.0158 5.44131 16.0123 5.46474 16.0228C9.06518 17.6666 12.9631 17.6666 16.521 16.0228C16.5445 16.0115 16.5722 16.015 16.593 16.0315C16.7032 16.1223 16.8185 16.2131 16.9347 16.2995C16.9746 16.3292 16.972 16.3912 16.9286 16.4165C16.3806 16.7369 15.8108 17.0075 15.2116 17.2336C15.1726 17.2485 15.1553 17.2939 15.1744 17.3314C15.5047 17.9713 15.882 18.5806 16.2973 19.1586C16.3147 19.183 16.3459 19.1935 16.3745 19.1847C18.1721 18.6287 19.9949 17.7897 21.8766 16.4078C21.8931 16.3956 21.9035 16.3773 21.9053 16.3572C22.364 11.6116 21.1369 7.48947 18.6525 3.83517C18.6465 3.82297 18.6361 3.81423 18.6239 3.80899ZM7.35169 13.8569C6.26771 13.8569 5.37454 12.8618 5.37454 11.6396C5.37454 10.4174 6.25039 9.42225 7.35169 9.42225C8.46163 9.42225 9.34616 10.4262 9.32881 11.6396C9.32881 12.8618 8.45296 13.8569 7.35169 13.8569ZM14.6619 13.8569C13.5779 13.8569 12.6847 12.8618 12.6847 11.6396C12.6847 10.4174 13.5606 9.42225 14.6619 9.42225C15.7718 9.42225 16.6563 10.4262 16.639 11.6396C16.639 12.8618 15.7718 13.8569 14.6619 13.8569Z" fill="#19250A"/>
</g>
<defs>
<clipPath id="clip0_225_710">
<rect width="22" height="22" fill="white"/>
</clipPath>
</defs>
</svg>
