<svg width="46" height="164" viewBox="0 0 46 164" fill="none" xmlns="http://www.w3.org/2000/svg">
<g id="FortniteLogo 1" clip-path="url(#clip0_225_992)">
<g id="Group">
<path id="Vector" d="M23 164C35.6526 164 46 163.969 46 163.927C46 163.865 44.4249 155.411 44.2163 154.374L44.112 153.834H35.663H27.2245V150.619V147.403H25.6807C24.8358 147.403 22.6349 147.372 20.7782 147.33L17.4195 147.268V150.546V153.834H13.7166H10.0136V150.048C10.0136 147.963 9.99274 146.262 9.96145 146.262C9.84671 146.262 0.938774 145.432 0.49025 145.38L0 145.318V154.664V164H23Z" fill="white" fill-opacity="0.3"/>
<path id="Vector_2" d="M1.34557 8.83792L2.034 17.1157L22.8122 17.1157H43.5905L43.6426 16.7734C43.6948 16.4726 44.863 0.44602 44.8526 0.124451C44.8526 0.0310917 43.7469 -2.67029e-05 39.6893 -2.67029e-05H34.5261V3.52685V7.05374H30.771L27.0159 7.05374V4.04551V1.03729H22.5306H18.0453V4.14925V7.2612H15.0725H12.0998L12.058 7.02262C12.0267 6.89814 11.985 5.84007 11.9433 4.6679C11.912 3.49574 11.8599 1.97088 11.8181 1.2655L11.7555 -2.67029e-05H6.19591H0.625835L0.636269 0.280048C0.646698 0.44602 0.959625 4.29447 1.34557 8.83792Z" fill="white" fill-opacity="0.3"/>
<path id="Vector_3" d="M2.78508 61.9797C3.82816 61.876 19.5474 60.6935 19.5683 60.7142C19.5892 60.7246 15.8236 62.2495 11.2028 64.1063C6.5819 65.9527 2.75378 67.5087 2.68077 67.5501C2.56603 67.6124 3.098 70.4754 4.09936 75.1744L4.19324 75.6205H22.1238H40.0545V71.0044V66.3884L39.3034 66.4402C37.9057 66.5439 26.3483 66.9278 25.8894 66.8863C25.4826 66.8551 26.1919 66.5439 33.3474 63.598C37.6971 61.8138 41.2957 60.2993 41.3583 60.2578C41.4209 60.1956 41.327 58.7537 41.1184 56.3056C40.9307 54.1791 40.7638 52.4364 40.7533 52.4364C40.7429 52.426 33.2223 52.4779 24.0431 52.5505C14.864 52.6231 6.19596 52.6854 4.76694 52.6854L2.19052 52.6958V57.3637V62.042L2.78508 61.9797Z" fill="white" fill-opacity="0.3"/>
<path id="Vector_4" d="M2.82674 135.007C3.24397 141.21 7.51018 144.623 16.1678 145.702C17.9619 145.92 24.0535 146.013 26.1814 145.857C33.0866 145.339 37.5719 143.482 39.8562 140.183C41.0766 138.409 41.7338 135.743 41.5773 133.109C41.4104 130.111 40.5551 128.067 38.7088 126.231C37.1964 124.727 35.7778 123.908 33.3578 123.119C29.9782 122.02 24.9297 121.522 19.6725 121.771C13.7895 122.051 10.1283 122.933 7.32243 124.748C4.65213 126.48 3.05621 129.219 2.85803 132.414C2.82674 132.922 2.79544 133.461 2.77458 133.607C2.76415 133.752 2.78502 134.374 2.82674 135.007ZM11.0254 133.544C11.8494 132.787 15.1351 132.466 22.1655 132.466C30.8231 132.466 34.4217 133.005 33.6499 134.187C33.3056 134.696 31.6263 135.08 28.8412 135.266C26.8072 135.401 17.4925 135.401 15.5419 135.266C12.7882 135.069 11.2653 134.717 10.9002 134.187C10.6916 133.897 10.702 133.845 11.0254 133.544Z" fill="white" fill-opacity="0.3"/>
<path id="Vector_5" d="M21.79 120.433H40.7845V115.671V110.92L39.4598 110.858C38.7192 110.817 36.3201 110.734 34.1088 110.671C31.8975 110.609 29.9573 110.526 29.8009 110.485C29.5818 110.433 30.99 109.987 35.7465 108.618C39.1782 107.622 42.0258 106.782 42.0675 106.74C42.1614 106.657 41.3895 96.927 41.2852 96.8233C41.2435 96.7921 37.8326 97.8709 33.6811 99.2195L26.1501 101.668L25.6911 101.149C24.1787 99.4269 21.258 98.0058 18.3687 97.6012C17.1065 97.4249 13.9773 97.539 12.8195 97.8087C8.28205 98.846 4.75643 101.595 3.44214 105.101C2.87888 106.626 2.88931 106.501 2.84758 113.711L2.80586 120.433H21.79ZM11.7972 109.738C12.1623 109.001 13.1011 108.4 14.3945 108.078C15.2603 107.86 18.0036 107.891 18.8798 108.13C20.5279 108.576 21.4875 109.364 21.8526 110.547L21.9152 110.786H16.6997H11.4739L11.5469 110.443C11.5782 110.267 11.6929 109.945 11.7972 109.738Z" fill="white" fill-opacity="0.3"/>
<path id="Vector_6" d="M7.77094 97.3004H12.6213V94.6553V92.0101H26.5986H40.5759V87.031V82.0518H27.4331H14.2902V79.3548V76.6578H9.43987H4.58953L4.54781 76.886C4.49566 77.1038 2.91017 96.8855 2.9206 97.1656C2.9206 97.2693 3.96368 97.3004 7.77094 97.3004Z" fill="white" fill-opacity="0.3"/>
<path id="Vector_7" d="M22.8957 50.5173H41.8276V45.3826V40.2479H22.8957H3.96369V45.3826V50.5173H22.8957Z" fill="white" fill-opacity="0.3"/>
<path id="Vector_8" d="M5.27798 28.5263C5.58048 34.1486 5.83082 38.8269 5.83082 38.9202C5.84125 39.0966 6.14375 39.1069 10.7437 39.1069H15.6462V36.4618V33.8166H29.3628H43.0793V28.7856V23.7546H28.7891H14.4988V20.9539V18.1531L9.59635 18.1531C6.89476 18.1531 4.70429 18.1842 4.70429 18.2257C4.71472 18.2776 4.96506 22.904 5.27798 28.5263Z" fill="white" fill-opacity="0.3"/>
</g>
</g>
<defs>
<clipPath id="clip0_225_992">
<rect width="164" height="46" fill="white" transform="matrix(0 -1 1 0 0 164)"/>
</clipPath>
</defs>
</svg>
