<svg width="67" height="174" viewBox="0 0 67 174" fill="none" xmlns="http://www.w3.org/2000/svg">
<g id="League_of_Legends_2019_vector 1" clip-path="url(#clip0_225_968)">
<g id="Group">
<path id="Vector" d="M48.1341 9.62804C47.3748 12.586 46.7323 15.138 44.2792 15.138C42.3517 15.138 41.1251 13.688 41.1251 11.368C41.0083 9.22204 42.4685 7.25003 44.6296 6.84403L41.826 1.04403C37.9711 2.61003 35.6348 6.38003 35.6348 11.194C35.6348 17.458 39.4897 21.808 44.9801 21.808C51.697 21.808 52.982 16.994 54.0917 12.702C54.8511 9.68604 55.552 7.13403 58.0635 7.13403C60.1662 7.13403 61.5096 8.81604 61.5096 11.368C61.5096 13.92 60.1078 16.066 58.0051 16.646L60.8087 22.446C64.6636 20.822 67 16.704 67 11.6C67 4.81404 63.2034 0.464031 57.2458 0.464031C50.4704 0.464031 49.1855 5.56804 48.1341 9.62804Z" fill="white" fill-opacity="0.3"/>
<path id="Vector_2" d="M8.47473 -4.76837e-05H11.5704V4.92995H14.4908V0.637956L17.4696 1.44995V4.92995H22.0838V8.29395H8.47473V-4.76837e-05Z" fill="white" fill-opacity="0.3"/>
<path id="Vector_3" d="M11.6288 16.762C11.6288 14.674 13.3227 12.992 15.4254 12.992C17.5281 12.992 19.2219 14.674 19.2219 16.762C19.2219 18.85 17.5281 20.532 15.4254 20.532C13.3227 20.532 11.6288 18.85 11.6288 16.762ZM22.4927 16.762C22.4927 12.876 19.2803 9.744 15.3669 9.744C11.4536 9.744 8.29956 12.934 8.29956 16.82C8.29956 20.706 11.512 23.838 15.3669 23.838C19.3387 23.838 22.5512 20.648 22.4927 16.762Z" fill="white" fill-opacity="0.3"/>
<path id="Vector_4" d="M66.1239 78.59V72.326H46.2067L66.1239 58.116V51.562H35.8101V57.884H56.0193L35.8101 71.92V80.04L38.7889 78.59H66.1239Z" fill="white" fill-opacity="0.3"/>
<path id="Vector_5" d="M54.559 30.334C56.7201 31.204 58.414 32.944 59.3485 35.032C59.8158 36.134 60.0494 37.294 60.0494 38.512V42.108H41.9429V38.512C41.9429 37.294 42.1765 36.134 42.6438 35.032C43.5199 32.886 45.2721 31.204 47.4332 30.334C49.7695 29.406 52.2811 29.406 54.559 30.334ZM37.0366 32.422C36.2773 34.336 35.8684 36.366 35.7516 38.396V48.662H66.0654V38.396C66.0654 34.336 64.5468 30.45 61.7432 27.492C60.3998 26.1 58.7644 24.94 56.9538 24.186C51.2298 21.692 44.5712 23.026 40.249 27.492C38.9056 28.942 37.7959 30.566 37.0366 32.422Z" fill="white" fill-opacity="0.3"/>
<path id="Vector_6" d="M66.1239 133.864V151.786H35.8101V133.864H41.7093V145.232H47.8421V134.85L53.5661 136.416V145.232H60.2247L60.2831 133.864H66.1239Z" fill="white" fill-opacity="0.3"/>
<path id="Vector_7" d="M41.7093 92.916V81.548H35.8101V99.412H66.1239V81.548H60.2831L60.2247 92.916H53.5661V84.1L47.8421 82.534V92.916H41.7093Z" fill="white" fill-opacity="0.3"/>
<path id="Vector_8" d="M23.9528 70.18C22.259 70.76 20.5068 71.05 18.7545 70.992L0.0639013 70.876L0.0639013 64.38L18.4625 64.438C20.5068 64.438 22.1422 63.9739 23.3104 63.0459C25.6467 60.842 25.7051 57.13 23.4272 54.868L23.3104 54.7519C22.1422 53.7659 20.5068 53.3019 18.4625 53.3019L0.00549316 53.2439L0.00549316 46.6319L18.8713 46.7479C20.6236 46.7479 22.3758 46.9799 24.0697 47.5599C25.5299 48.0819 26.8732 48.9519 28.0414 49.9959C29.1512 51.0979 30.0273 52.3739 30.553 53.8239C31.7211 57.1299 31.7211 60.7259 30.4945 64.0319C29.9104 65.4819 29.0927 66.7579 27.9246 67.8019C26.8148 68.8459 25.4714 69.6579 23.9528 70.1799L23.9528 70.18Z" fill="white" fill-opacity="0.3"/>
<path id="Vector_9" d="M21.6165 102.776C19.689 103.588 17.5863 103.994 15.5421 103.994C13.4394 103.994 11.3951 103.53 9.46761 102.718C7.59855 101.906 5.90472 100.746 4.50292 99.296C3.04271 97.846 1.93296 96.106 1.17365 94.25C0.355939 92.336 -0.0529181 90.248 0.00549011 88.102C-0.0529502 85.26 0.706388 82.418 2.10818 79.924C3.45157 77.604 5.43745 75.69 7.89059 74.472L10.6942 80.388C9.29239 81.084 8.12423 82.186 7.30651 83.52C6.4888 84.912 6.13835 86.536 6.13835 88.16C6.13835 89.378 6.37198 90.654 6.83925 91.756C7.30651 92.858 8.00741 93.844 8.88353 94.656C9.75965 95.526 10.811 96.164 11.9208 96.628C14.3155 97.614 16.9439 97.614 19.3386 96.686C21.6165 95.816 23.4856 94.018 24.4785 91.814C25.0042 90.654 25.2962 89.436 25.2378 88.16C25.2963 86.304 24.7121 84.448 23.6608 82.94C22.6679 81.548 21.1493 80.562 19.4554 80.156V90.886L13.965 88.218V73.254C15.1332 73.196 17.6448 73.254 18.1704 73.312C19.5722 73.486 20.974 73.834 22.3174 74.356C25.9387 75.806 28.7423 78.648 30.2025 82.244C32.5972 88.16 31.1955 94.888 26.6396 99.412C25.1794 100.862 23.4856 101.964 21.6165 102.776V102.776Z" fill="white" fill-opacity="0.3"/>
<path id="Vector_10" d="M27.3406 172.492H3.21801L0.0639648 174L0.0639648 165.996H24.537V153.99L30.4946 155.672V174L27.3406 172.492Z" fill="white" fill-opacity="0.3"/>
<path id="Vector_11" d="M62.9698 172.492H38.8473L35.6932 174V165.996H60.1663V153.99L66.1239 155.672V174L62.9698 172.492Z" fill="white" fill-opacity="0.3"/>
<path id="Vector_12" d="M30.4949 133.864V151.786H0.18103L0.18103 133.864H6.08026V145.232H12.2131V134.85L17.9371 136.416V145.232H24.5372L24.5957 133.864H30.4949Z" fill="white" fill-opacity="0.3"/>
<path id="Vector_13" d="M30.4949 25.8679V43.7319H0.18103L0.18103 25.8099H6.08025V37.1779H12.2131V26.7959L17.9371 28.3619V37.1779H24.5372L24.5957 25.8099H30.4949L30.4949 25.8679Z" fill="white" fill-opacity="0.3"/>
<path id="Vector_14" d="M8.59156 116.696L18.813 112.926V120.64L8.59156 116.696ZM30.4946 125.106L24.5954 122.844V110.78L30.4946 108.46V101.674L0.0639648 113.796L0.0639648 123.076L4.03572 121.104L30.4946 131.776V125.106Z" fill="white" fill-opacity="0.3"/>
<path id="Vector_15" d="M66.5911 120.292C66.8248 119.19 66.9416 118.088 66.9416 116.928C67 114.898 66.5911 112.868 65.8318 110.954C64.3716 107.358 61.568 104.516 57.9467 103.066C56.6033 102.544 55.2015 102.196 53.7998 102.022C52.398 101.906 50.9962 101.906 49.536 101.964V116.928H49.5944L55.0847 119.596V108.924C56.7786 109.33 58.2972 110.316 59.2901 111.708C60.3999 113.216 60.9256 115.014 60.8671 116.87C60.8671 117.45 60.8087 117.972 60.6919 118.552L60.3415 119.886C60.2831 120.118 60.1662 120.292 60.1078 120.524C59.1149 122.728 57.3042 124.526 54.9679 125.396C52.5732 126.324 49.8864 126.324 47.4917 125.338C46.3819 124.874 45.3306 124.178 44.4544 123.366C43.5783 122.554 42.9358 121.51 42.4686 120.408C42.0013 119.248 41.7677 118.03 41.7677 116.812C41.7093 115.188 42.1181 113.564 42.9358 112.172C43.7536 110.838 44.9217 109.736 46.3235 109.04L43.5199 103.124C41.0668 104.342 39.0809 106.198 37.7375 108.576C36.3357 111.07 35.6348 113.854 35.6348 116.754C35.5764 120.93 37.2118 124.932 40.1906 127.948C41.5924 129.398 43.2863 130.558 45.1553 131.37C49.0103 133.052 53.4493 133.052 57.3042 131.428C59.1733 130.616 60.8671 129.514 62.3273 128.122C63.6123 126.846 64.6637 125.338 65.4814 123.714C65.9988 122.573 66.4187 121.433 66.5911 120.292Z" fill="white" fill-opacity="0.3"/>
</g>
</g>
<defs>
<clipPath id="clip0_225_968">
<rect width="174" height="67" fill="white" transform="matrix(0 -1 1 0 0 174)"/>
</clipPath>
</defs>
</svg>
