<svg width="68" height="52" viewBox="0 0 68 52" fill="none" xmlns="http://www.w3.org/2000/svg">
<path id="Vector" d="M66.531 6.81086C64.8329 5.06639 63.0978 3.35905 61.4182 1.59602C60.9821 1.09421 60.4432 0.691984 59.838 0.416622C59.2329 0.14126 58.5756 -0.000808565 57.9107 1.48267e-05C45.4768 1.48267e-05 33.0397 1.48267e-05 20.5995 1.48267e-05C20.0476 -0.0661114 19.4894 0.055329 19.0148 0.344809C18.5401 0.634289 18.1767 1.07499 17.9828 1.59602C15.0506 8.64812 12.0968 15.6971 9.1213 22.743L1.74443 40.3733C1.66092 40.5682 1.58668 40.7445 1.50317 40.9208C1.50317 41.0043 1.42894 41.0785 1.4011 41.1527L0.250496 43.8066C0.0631825 44.2408 -0.013464 44.7147 0.0274314 45.1858C0.0683269 45.6569 0.225485 46.1105 0.484816 46.5059C0.744147 46.9014 1.09755 47.2263 1.51334 47.4515C1.92913 47.6768 2.39431 47.7953 2.8672 47.7966H27.3454C28.6538 47.7966 30.8344 47.9172 32.2448 49.2627L33.5531 50.5339L33.813 50.7844L33.9707 50.9329C33.9905 50.9621 34.0157 50.9873 34.0449 51.0072C34.4061 51.3658 34.8452 51.6362 35.3281 51.7972C35.811 51.9581 36.3245 52.0053 36.8287 51.9351H38.6845C40.0671 51.9351 40.8558 51.9351 42.2198 51.9351C47.1192 51.7773 50.6452 49.8101 52.4268 45.8109C54.5239 41.1713 56.4261 36.3926 58.4025 31.6695C58.5973 31.1039 58.6127 30.4921 58.4466 29.9174C58.2805 29.3428 57.9411 28.8334 57.4746 28.459C56.8808 27.8373 56.2683 27.2248 55.6652 26.6031C55.0621 25.9814 55.0249 25.434 55.8415 25.2577C57.5212 24.9788 59.1057 24.2878 60.4529 23.2466C61.8002 22.2054 62.8683 20.8464 63.5617 19.2912C64.9257 16.2755 66.1691 13.1763 67.4496 10.1049C67.9507 9.0935 67.6167 7.91507 66.531 6.81086ZM56.7323 9.22343C56.1167 11.0712 55.2982 12.845 54.2919 14.5125C53.6085 15.4281 52.71 16.1611 51.6757 16.6467C50.6415 17.1322 49.5036 17.3553 48.3626 17.2962C46.2655 17.2962 44.1591 17.2962 42.0528 17.2962C41.8597 17.3028 41.6678 17.2642 41.4923 17.1837C41.3167 17.1032 41.1623 16.9828 41.0414 16.8323C40.9034 16.6998 40.8098 16.528 40.7733 16.3403C40.7367 16.1526 40.7591 15.9582 40.8372 15.7837C41.4558 14.3362 42.0744 12.8918 42.693 11.4504C42.7106 11.3932 42.7324 11.3374 42.758 11.2834C42.8207 11.1953 42.8545 11.0899 42.8545 10.9818C42.8545 10.8737 42.8207 10.7683 42.758 10.6802C42.679 10.5828 42.5754 10.5083 42.458 10.4642C42.3405 10.4202 42.2135 10.4083 42.0899 10.4297H40.2341C39.4361 10.4297 38.6381 10.4297 37.8308 10.4297C37.1744 10.3605 36.5134 10.5093 35.95 10.8531C35.3865 11.1969 34.9518 11.7165 34.713 12.3319C33.9893 14.0702 33.2624 15.7992 32.5324 17.5189C30.0889 23.3338 27.6455 29.1456 25.202 34.9543C24.9421 35.576 25.0164 35.8822 25.6288 36.4668C26.2412 37.0514 26.6773 37.5153 27.1784 38.0535C27.3233 38.2296 27.5064 38.3704 27.7138 38.4652C27.9212 38.5601 28.1474 38.6065 28.3754 38.601C29.1085 38.601 29.8415 38.601 30.5838 38.601C30.7782 38.634 30.978 38.5971 31.1479 38.4969C31.3177 38.3967 31.4466 38.2396 31.5117 38.0535C33.0799 34.2955 34.6666 30.556 36.2255 26.8073C36.3528 26.4751 36.5868 26.1946 36.8908 26.0099C37.1948 25.8251 37.5515 25.7466 37.905 25.7866C41.2548 25.7866 44.5953 25.7866 47.945 25.7866C48.2569 25.7699 48.5643 25.867 48.81 26.0599C49.0558 26.2527 49.2232 26.5282 49.2812 26.8351C49.2887 27.0368 49.2473 27.2374 49.1606 27.4197C46.9026 32.7397 44.6509 38.0752 42.4054 43.4261C41.9322 44.5675 41.4775 45.7088 40.9671 46.8408C40.6516 47.611 39.9743 47.611 39.2319 46.8408C37.7194 45.2634 36.1884 43.7045 34.6852 42.1178C34.4238 41.8122 34.0994 41.5669 33.7342 41.3987C33.3689 41.2305 32.9716 41.1435 32.5695 41.1435H18.2798C17.8526 41.1517 17.4289 41.0653 17.039 40.8904C16.6492 40.7156 16.3029 40.4566 16.0249 40.1321C14.995 39.0371 13.9279 37.97 12.8701 36.8936C12.5159 36.6262 12.2595 36.2496 12.1404 35.822C12.0214 35.3944 12.0462 34.9395 12.2112 34.5275C15.3043 27.1042 18.4189 19.681 21.5553 12.2577C21.9633 11.1681 22.6518 10.2055 23.5513 9.46741C24.4507 8.72931 25.5291 8.24183 26.6773 8.05426C27.3754 7.92918 28.0838 7.87015 28.793 7.87795C33.0985 7.87795 37.404 7.87795 41.7187 7.87795H55.3404C55.516 7.85491 55.6938 7.85491 55.8693 7.87795C56.4354 8.04497 56.9457 8.74092 56.7323 9.22343Z" fill="#97F123"/>
</svg>
